<svg id="Calque_1" data-name="Calque 1" xmlns="http://www.w3.org/2000/svg" viewBox="0 0 37.54 20.96"><defs><style>.cls-1{fill:#4387c7;}.cls-2,.cls-4{fill:none;stroke:#fff;stroke-miterlimit:10;}.cls-2{stroke-width:0.5px;}.cls-3{fill:#fff;}.cls-4{stroke-width:0.25px;}</style></defs><title>Sans titre - 1</title><path class="cls-1" d="M367.25,375.24h-33a.87.87,0,0,1-.86-.8L332,356.62a.86.86,0,0,1,.86-.93h35.83a.86.86,0,0,1,.85.93l-1.39,17.82A.87.87,0,0,1,367.25,375.24Z" transform="translate(-331.96 -355.69)"/><rect class="cls-1" x="2.23" y="20.04" width="33.09" height="0.92" rx="0.46"/><ellipse class="cls-2" cx="16.5" cy="10" rx="1.16" ry="1.38"/><ellipse class="cls-2" cx="20.98" cy="10" rx="1.16" ry="1.38"/><ellipse class="cls-3" cx="16.83" cy="10.09" rx="0.71" ry="0.85"/><ellipse class="cls-3" cx="20.56" cy="10.09" rx="0.71" ry="0.85"/><line class="cls-4" x1="19.36" y1="7.74" x2="18.09" y2="12.26"/><polyline class="cls-4" points="22.55 7.74 24.9 9.85 22.73 12.26"/><polyline class="cls-4" points="14.93 7.74 12.58 9.85 14.75 12.26"/></svg>