<svg id="Calque_1" data-name="Calque 1" xmlns="http://www.w3.org/2000/svg" viewBox="0 0 58.51 52.15"><defs><style>.cls-1,.cls-2{fill:#4387c7;}.cls-2{opacity:0.6;}</style></defs><title>Sans titre - 1</title><polygon class="cls-1" points="49.77 40.81 35.24 43.63 20.72 46.45 25.54 32.46 30.36 18.48 40.06 29.64 49.77 40.81"/><polygon class="cls-1" points="0 19.34 14.43 16.1 28.87 12.86 24.45 26.98 20.04 41.1 10.02 30.22 0 19.34"/><circle class="cls-1" cx="37.56" cy="11.06" r="6.4"/><polygon class="cls-2" points="45.98 0 45.4 1.47 46.96 1.24 45.98 0"/><path class="cls-2" d="M310.77,354a.1.1,0,0,1-.08.12l-.3,0a.1.1,0,0,1-.11-.08l-3.52-23.19-.33.89,3.39,22.37a.1.1,0,0,1-.08.12l-.3,0a.1.1,0,0,1-.12-.08l-3.26-21.46-.5,1.37L309,356.71l2.76-.42-4.2-27.65-.43,1.29Zm.75,1.68L309,356l-.15-1,2.49-.37Z" transform="translate(-256.49 -304.57)"/><path class="cls-2" d="M305.53,329.25l0-.21a1,1,0,0,0-.24,0l-.44.16,0,.3A1,1,0,0,1,305.53,329.25Z" transform="translate(-256.49 -304.57)"/><path class="cls-2" d="M302.32,308.1a.1.1,0,0,1,.09-.11l.3-.05a.09.09,0,0,1,.11.09l2.89,19,.34-.82L303.28,308a.1.1,0,0,1,.08-.11l.3,0a.1.1,0,0,1,.12.09l2.64,17.42.46-1.1-2.33-15.36-.89-2.54-1.82.28,0,2.68,3,19.92.52-1.26Z" transform="translate(-256.49 -304.57)"/><path class="cls-2" d="M306.06,329.36l.17.06a1,1,0,0,1,.34.21l-.05-.33a1.24,1.24,0,0,0-.5-.25Z" transform="translate(-256.49 -304.57)"/><polygon class="cls-2" points="48.29 24.69 48.33 24.68 48.32 24.61 48.29 24.69"/><polygon class="cls-2" points="56.15 5.74 50.39 19.64 51.06 24.08 57.07 6.12 56.15 5.74"/><path class="cls-2" d="M306,329.05l-.31-2-.38.9.17,1.12A1.3,1.3,0,0,1,306,329.05Z" transform="translate(-256.49 -304.57)"/><path class="cls-2" d="M306.52,329.3a1.39,1.39,0,0,1,.3.37l.24.45.06-.19-.7-4.63-.37.9Z" transform="translate(-256.49 -304.57)"/><path class="cls-2" d="M314.39,310l0,0s0,.06-.07.08Z" transform="translate(-256.49 -304.57)"/><path class="cls-2" d="M314.63,308.35a1.55,1.55,0,0,1-.22-.86,1.37,1.37,0,0,1,.11-.55,1.26,1.26,0,0,1,.47-.61,2,2,0,0,0-.95.28,3.25,3.25,0,0,0-1.27,1,1.77,1.77,0,0,0-.38,1.27,1.54,1.54,0,0,0,.87,1.19,1,1,0,0,0,1.1-.06A1.23,1.23,0,0,0,314.63,308.35Z" transform="translate(-256.49 -304.57)"/><path class="cls-2" d="M304.63,329.89l-8.31,22.6a1,1,0,0,0,.59,1.27l.33.13a1,1,0,0,0,1.27-.59l7.05-19.18-.7-4.58A1,1,0,0,0,304.63,329.89Z" transform="translate(-256.49 -304.57)"/><path class="cls-2" d="M305.9,329.3a1,1,0,0,0-.37-.05l.53,3.5.37-1-.37-2.4Z" transform="translate(-256.49 -304.57)"/><path class="cls-2" d="M306.57,329.63l.19,1.24.06-.18A1,1,0,0,0,306.57,329.63Z" transform="translate(-256.49 -304.57)"/></svg>